<svg width="21" height="22" viewBox="0 0 21 22" fill="none" xmlns="http://www.w3.org/2000/svg">
<g clip-path="url(#clip0_1225_2337)">
<path d="M13.5802 18.4781V16.7806C13.5802 15.8801 13.2225 15.0166 12.5858 14.3799C11.9491 13.7432 11.0856 13.3855 10.1852 13.3855H4.24382C3.34339 13.3855 2.47984 13.7432 1.84315 14.3799C1.20645 15.0166 0.848755 15.8801 0.848755 16.7806V18.4781" stroke="white" stroke-width="1.69753" stroke-linecap="round" stroke-linejoin="round"/>
<path d="M7.21446 9.99081C9.0895 9.99081 10.6095 8.47079 10.6095 6.59575C10.6095 4.7207 9.0895 3.20068 7.21446 3.20068C5.33942 3.20068 3.8194 4.7207 3.8194 6.59575C3.8194 8.47079 5.33942 9.99081 7.21446 9.99081Z" stroke="white" stroke-width="1.69753" stroke-linecap="round" stroke-linejoin="round"/>
<path d="M14.429 9.99074L16.1265 11.6883L19.5216 8.29321" stroke="white" stroke-width="1.69753" stroke-linecap="round" stroke-linejoin="round"/>
</g>
<defs>
<clipPath id="clip0_1225_2337">
<rect width="20.3704" height="20.3704" fill="white" transform="translate(0 0.654297)"/>
</clipPath>
</defs>
</svg>
